<?xml version="1.0" encoding="utf-8"?>
<!-- Generator: Adobe Illustrator 23.0.1, SVG Export Plug-In . SVG Version: 6.00 Build 0)  -->
<svg version="1.1" id="Layer_1" xmlns="http://www.w3.org/2000/svg" xmlns:xlink="http://www.w3.org/1999/xlink" x="0px" y="0px"
	 viewBox="0 0 200 266" style="enable-background:new 0 0 200 266;" xml:space="preserve">
<style type="text/css">
	.st0{fill:#333333;}
	.st1{fill:#262626;}
	.st2{fill:#494949;}
	.st3{fill:#020202;}
	.st4{fill:#353535;}
	.st5{fill:#444444;}
	.st6{fill:#3F3F3F;}
	.st7{fill:#F4F4F4;}
</style>
<g>
	<polygon class="st0" points="142.53,25.51 99.95,0.93 99.95,50.1 	"/>
	<g>
		<polygon class="st1" points="185.12,50.1 142.53,25.51 142.53,74.69 		"/>
		<polygon class="st0" points="185.12,99.27 185.12,50.1 142.53,74.69 		"/>
	</g>
	<polygon class="st2" points="57.36,25.51 57.36,74.69 99.95,50.1 	"/>
	<polygon points="99.95,0.93 57.36,25.51 99.95,50.1 	"/>
	<g>
		<polygon class="st0" points="14.78,50.1 14.78,99.27 57.36,74.69 		"/>
		<polygon class="st3" points="57.36,25.51 14.78,50.1 57.36,74.69 		"/>
	</g>
	<polygon class="st4" points="99.95,99.27 57.36,74.69 57.36,123.86 	"/>
	<polygon points="14.78,99.27 14.78,148.44 57.36,123.86 	"/>
	<polygon class="st5" points="57.36,74.69 14.78,99.27 57.36,123.86 	"/>
	<polygon class="st6" points="57.36,123.86 14.78,148.44 57.36,173.03 	"/>
	<polygon class="st5" points="99.95,197.62 142.53,173.03 99.95,148.44 	"/>
	<polygon class="st0" points="99.95,148.44 57.36,173.03 99.95,197.62 	"/>
	<g>
		<polygon class="st2" points="185.12,99.27 142.53,74.69 142.53,123.86 		"/>
		<polygon class="st0" points="185.12,148.44 185.12,99.27 142.53,123.86 		"/>
		<polygon class="st5" points="142.53,173.03 185.12,148.44 142.53,123.86 		"/>
		<polygon points="142.53,74.69 99.95,99.27 142.53,123.86 		"/>
		<polygon class="st0" points="142.53,123.86 99.95,148.44 142.53,173.03 		"/>
	</g>
</g>
<g>
	<path class="st7" d="M66.43,233.83c-4.62,0-9.19,0-13.82,0c0-0.19,0-0.37,0-0.55c0-6.94,0.01-13.87-0.01-20.81
		c0-0.57-0.08-1.17-0.25-1.7c-0.36-1.13-1.21-1.6-2.59-1.54c-1.08,0.05-1.86,0.65-2.12,1.74c-0.13,0.51-0.18,1.06-0.18,1.59
		c-0.01,6.7,0.02,13.39-0.02,20.09c-0.02,3.93-1.17,7.51-3.56,10.62c-2.4,3.12-5.41,5.33-9.24,6.09c-5.49,1.08-10.53,0.1-14.79-3.87
		c-2.69-2.5-4.17-5.67-4.8-9.3c-0.3-1.7-0.42-3.42-0.42-5.15c0.01-6.45,0-12.91,0-19.36c0-0.17,0-0.34,0-0.53c4.61,0,9.19,0,13.82,0
		c0,0.19,0,0.37,0,0.55c0,6.92,0,13.84,0.01,20.76c0,0.42,0.04,0.85,0.12,1.26c0.28,1.39,1.3,2.14,2.68,2
		c1.45-0.14,2.23-1,2.34-2.61c0.02-0.25,0.02-0.51,0.02-0.76c0-6.67-0.03-13.33,0.01-20c0.02-4.01,1.19-7.65,3.65-10.8
		c2.53-3.23,5.71-5.44,9.74-6.09c5.28-0.84,10.12,0.15,14.2,3.97c2.69,2.52,4.18,5.7,4.81,9.34c0.3,1.72,0.42,3.45,0.42,5.19
		c-0.01,6.45,0,12.91,0,19.36C66.43,233.48,66.43,233.65,66.43,233.83z"/>
	<path class="st7" d="M88.12,225.65c0-5.24,0-10.41,0-15.65c0.86-0.06,1.72-0.12,2.57-0.17c3.7-0.2,7.22,0.48,10.4,2.48
		c4.92,3.1,8.23,7.46,9.27,13.4c2.19,12.61-6.2,21.22-14.63,22.99c-6.64,1.39-12.59-0.14-17.65-4.84c-2.75-2.55-4.36-5.81-5.21-9.5
		c-0.45-1.98-0.66-3.99-0.66-6.02c-0.01-10.43,0-20.86,0-31.3c0-0.14,0-0.28,0-0.45c4.61,0,9.19,0,13.82,0c0,0.21,0,0.41,0,0.6
		c0,10.11,0,20.21,0,30.32c0,1.3,0.09,2.6,0.46,3.86c0.55,1.86,1.59,3.21,3.53,3.64c2.91,0.64,5.76-1.07,6.47-3.9
		c0.78-3.07-1.08-6.17-4.03-6.73c-1.24-0.23-2.37,0.1-3.44,0.71C88.74,225.27,88.46,225.44,88.12,225.65z"/>
	<path class="st7" d="M114.45,229.38c-0.07-10.77,8.03-18.05,15.92-19.31c4.18-0.67,8.27-0.44,12.05,1.61
		c5.86,3.17,9.62,8.04,10.57,14.91c0.7,5.08-0.22,9.84-3.18,14.06c-3.07,4.39-7.13,7.34-12.38,8.22
		c-6.47,1.09-12.24-0.49-17.05-5.24c-3.16-3.12-5.14-6.87-5.74-11.36c-0.04-0.31-0.08-0.62-0.1-0.93
		C114.51,230.68,114.49,230.03,114.45,229.38z M139.17,229.35c-0.01-0.14-0.02-0.37-0.04-0.61c-0.31-3.73-4.34-6.07-7.59-4.42
		c-2.2,1.12-3.4,3.66-2.94,6.22c0.46,2.6,2.66,4.58,5.09,4.61C136.75,235.18,139.17,232.66,139.17,229.35z"/>
	<path class="st7" d="M172.26,248.39c-4.63,0-9.2,0-13.8,0c-0.01-0.08-0.02-0.15-0.02-0.22c0-3.43,0.02-6.85,0-10.27
		c-0.02-4.05,1.74-7.03,5.05-9.12c0.12-0.07,0.23-0.15,0.34-0.23c0.02-0.02,0.04-0.04,0.06-0.05c-0.73-0.61-1.48-1.19-2.2-1.82
		c-1.97-1.74-3.04-4-3.15-6.63c-0.13-3.12-0.08-6.25-0.1-9.38c0-0.03,0.02-0.05,0.03-0.11c4.56,0,9.14,0,13.78,0
		c0,0.16,0,0.32,0,0.48c0,2.96,0,5.92,0,8.87c0,0.88,0.12,1.72,0.62,2.46c0.66,0.97,1.57,1.28,2.67,1.04
		c1.01-0.22,1.55-0.92,1.76-1.91c0.09-0.44,0.14-0.9,0.14-1.35c0.01-3.03,0.01-6.06,0.01-9.09c0-0.17,0-0.33,0-0.52
		c4.62,0,9.19,0,13.78,0c0.01,0.06,0.04,0.11,0.04,0.16c0,3.1,0.02,6.2-0.02,9.3c-0.02,1.33-0.25,2.64-0.69,3.9
		c-0.61,1.72-1.73,3.03-3.14,4.11c-0.19,0.14-0.38,0.28-0.58,0.43c0.51,0.42,1.01,0.82,1.49,1.25c1.81,1.62,2.68,3.73,2.85,6.15
		c0.08,1.18,0.08,2.37,0.09,3.56c0.01,2.83,0,5.66,0,8.49c0,0.15,0,0.3,0,0.48c-4.61,0-9.19,0-13.82,0c0-0.19,0-0.37,0-0.54
		c0-3.68,0.02-7.36-0.01-11.04c-0.01-0.7-0.12-1.42-0.32-2.08c-0.35-1.15-1.25-1.72-2.4-1.66c-1.23,0.06-1.96,0.63-2.26,1.84
		c-0.14,0.57-0.19,1.17-0.19,1.76c-0.02,3.72-0.01,7.44-0.01,11.17C172.26,248,172.26,248.17,172.26,248.39z"/>
</g>
</svg>
