<?xml version="1.0"?>
<svg xmlns="http://www.w3.org/2000/svg" xmlns:xlink="http://www.w3.org/1999/xlink" version="1.1" id="Capa_1" x="0px" y="0px" viewBox="0 0 496 496" style="enable-background:new 0 0 496 496;" xml:space="preserve" width="512px" height="512px" class=""><g><g>
	<path style="fill:#FFCB57;" d="M488,320v-48l-37.392-7.48c-1.232-3.544-2.672-6.984-4.288-10.32l21.16-31.736l-33.944-33.944   L401.8,209.68c-3.344-1.624-6.776-3.056-10.32-4.288L384,168h-48l-7.48,37.392c-3.544,1.232-6.984,2.672-10.32,4.288l-31.736-21.16   l-33.944,33.944l21.16,31.736c-1.624,3.344-3.056,6.776-4.288,10.32L232,272v48l37.392,7.48c1.232,3.544,2.672,6.984,4.288,10.32   l-21.16,31.736l33.944,33.944l31.736-21.16c3.344,1.624,6.776,3.056,10.32,4.288L336,424h48l7.48-37.392   c3.544-1.232,6.984-2.672,10.32-4.288l31.736,21.16l33.944-33.944L446.32,337.8c1.624-3.344,3.056-6.776,4.288-10.32L488,320z    M360,336c-22.088,0-40-17.912-40-40s17.912-40,40-40s40,17.912,40,40S382.088,336,360,336z" data-original="#FFCB57"/>
	<path style="fill:#FFCB57;" d="M232,200v-32l-27.248-5.448c-1.296-4.168-3-8.152-5-11.952l15.448-23.168L192.568,104.8   L169.4,120.248c-3.8-2-7.784-3.696-11.952-5L152,88h-32l-5.448,27.248c-4.168,1.296-8.152,3-11.952,5L79.432,104.8l-22.624,22.624   l15.448,23.168c-2,3.8-3.696,7.784-5,11.952L40,168v32l27.248,5.448c1.296,4.168,3,8.152,5,11.952l-15.44,23.168l22.624,22.624   l23.168-15.44c3.8,2,7.784,3.696,11.952,5L120,280h32l5.448-27.248c4.168-1.296,8.152-3,11.952-5l23.168,15.44l22.624-22.624   l-15.44-23.168c2-3.8,3.696-7.784,5-11.952L232,200z M136,216c-17.672,0-32-14.328-32-32s14.328-32,32-32s32,14.328,32,32   S153.672,216,136,216z" data-original="#FFCB57"/>
</g><g>
	<rect x="128" y="304" style="fill:#E56565;" width="16" height="16" data-original="#E56565" class=""/>
	<rect x="128" y="336" style="fill:#E56565;" width="16" height="16" data-original="#E56565" class=""/>
	<rect x="128" y="368" style="fill:#E56565;" width="16" height="16" data-original="#E56565" class=""/>
	<rect x="352" y="128" style="fill:#E56565;" width="16" height="16" data-original="#E56565" class=""/>
	<rect x="352" y="96" style="fill:#E56565;" width="16" height="16" data-original="#E56565" class=""/>
	<rect x="352" y="64" style="fill:#E56565;" width="16" height="16" data-original="#E56565" class=""/>
</g><g>
	<path style="fill:#FFFFFF" d="M16,64h256v16h16V40c0-22.056-17.944-40-40-40H40C17.944,0,0,17.944,0,40v360h16V64z M40,16h208   c13.232,0,24,10.768,24,24v8H16v-8C16,26.768,26.768,16,40,16z" data-original="#3F3A34" class="active-path" data-old_color="#3F3A34"/>
	<path style="fill:#FFFFFF" d="M0,456c0,22.056,17.944,40,40,40h208c22.056,0,40-17.944,40-40v-40H0V456z M16,432h256v24   c0,13.232-10.768,24-24,24H40c-13.232,0-24-10.768-24-24V432z" data-original="#3F3A34" class="active-path" data-old_color="#3F3A34"/>
	<rect x="104" y="448" style="fill:#FFFFFF" width="80" height="16" data-original="#3F3A34" class="active-path" data-old_color="#3F3A34"/>
	<path style="fill:#FFFFFF" d="M360,248c-26.472,0-48,21.528-48,48s21.528,48,48,48s48-21.528,48-48S386.472,248,360,248z M360,328   c-17.648,0-32-14.352-32-32s14.352-32,32-32s32,14.352,32,32S377.648,328,360,328z" data-original="#3F3A34" class="active-path" data-old_color="#3F3A34"/>
	<path style="fill:#FFFFFF" d="M136,144c-22.056,0-40,17.944-40,40s17.944,40,40,40s40-17.944,40-40S158.056,144,136,144z M136,208   c-13.232,0-24-10.768-24-24s10.768-24,24-24s24,10.768,24,24S149.232,208,136,208z" data-original="#3F3A34" class="active-path" data-old_color="#3F3A34"/>
	<path style="fill:#FFFFFF" d="M103.208,256.952c1.456,0.664,2.92,1.28,4.392,1.84l5.84,29.2h45.112l5.84-29.2   c1.472-0.56,2.936-1.176,4.392-1.84l24.8,16.536l31.904-31.904l-16.536-24.8c0.664-1.464,1.28-2.928,1.84-4.392L240,206.56v-45.12   l-29.2-5.84c-1.128-2.92-2.456-5.84-3.968-8.728l-14.16,7.448c1.848,3.528,3.352,7.104,4.44,10.608l1.416,4.536L224,174.56v18.88   l-25.48,5.096l-1.416,4.536c-1.088,3.504-2.584,7.072-4.44,10.608l-2.208,4.208l14.44,21.664l-13.344,13.352l-21.664-14.448   l-4.2,2.208c-3.512,1.848-7.088,3.344-10.616,4.448l-4.528,1.416L145.448,272H126.56l-5.096-25.472l-4.528-1.416   c-3.528-1.104-7.104-2.6-10.616-4.448l-4.2-2.208l-21.664,14.448l-17.984-17.992L51.16,246.224l27.264,27.264L103.208,256.952z" data-original="#3F3A34" class="active-path" data-old_color="#3F3A34"/>
	<path style="fill:#FFFFFF" d="M32,161.44v45.12l29.2,5.84c1.128,2.92,2.456,5.84,3.968,8.728l14.16-7.448   c-1.848-3.528-3.352-7.104-4.44-10.608l-1.416-4.536L48,193.44v-18.88l25.48-5.096l1.416-4.536   c1.088-3.504,2.584-7.072,4.44-10.608l2.208-4.208l-14.44-21.664l13.352-13.352l21.672,14.448l4.2-2.216   c3.504-1.84,7.072-3.336,10.6-4.44l4.528-1.416L126.552,96h18.888l5.096,25.472l4.528,1.416c3.528,1.104,7.104,2.6,10.6,4.44   l4.2,2.216l21.672-14.448l17.992,17.992l11.312-11.312l-27.256-27.264l-24.808,16.528c-1.464-0.664-2.92-1.272-4.392-1.84   L158.552,80H113.44l-5.84,29.2c-1.472,0.568-2.928,1.176-4.392,1.84L78.4,94.512l-31.896,31.896l16.536,24.8   c-0.664,1.464-1.28,2.928-1.84,4.392L32,161.44z" data-original="#3F3A34" class="active-path" data-old_color="#3F3A34"/>
	<path style="fill:#FFFFFF" d="M496,326.56v-61.12l-39.456-7.88c-0.92-2.312-1.936-4.6-3.032-6.856l-14.392,7   c1.504,3.104,2.832,6.272,3.92,9.44l1.504,4.328L480,278.56v34.872l-35.456,7.096l-1.504,4.328c-1.096,3.168-2.416,6.344-3.92,9.44   l-2.008,4.12l20.072,30.104l-24.664,24.664l-30.112-20.064l-4.12,2.008c-3.096,1.504-6.272,2.832-9.44,3.92l-4.328,1.504   L377.44,416h-34.88l-7.096-35.456l-4.328-1.504c-3.168-1.096-6.344-2.416-9.44-3.92l-4.12-2.008l-30.112,20.064L258.16,363.88   l-11.312,11.312l38.584,38.576l33.48-22.32c0.872,0.376,1.752,0.744,2.632,1.096L329.44,432h61.128l7.88-39.456   c0.88-0.352,1.76-0.72,2.632-1.096l33.48,22.32l43.224-43.208l-22.328-33.488c0.376-0.872,0.744-1.752,1.096-2.632L496,326.56z" data-original="#3F3A34" class="active-path" data-old_color="#3F3A34"/>
	<path style="fill:#FFFFFF" d="M242.216,221.44l22.328,33.48c-0.376,0.872-0.744,1.752-1.096,2.632L224,265.44v61.128l39.456,7.88   c0.92,2.312,1.936,4.6,3.032,6.848l14.392-7c-1.504-3.096-2.832-6.272-3.92-9.44l-1.504-4.328L240,313.44v-34.88l35.456-7.096   l1.504-4.328c1.096-3.168,2.416-6.336,3.92-9.44l2.008-4.128l-20.072-30.096l24.664-24.664l30.104,20.064l4.128-2   c3.088-1.504,6.272-2.832,9.456-3.936l4.312-1.504L342.552,176h34.888l7.088,35.44l4.312,1.504   c3.176,1.104,6.368,2.432,9.456,3.936l4.128,2l30.104-20.064l29.304,29.304l11.312-11.312l-38.584-38.576l-33.488,22.32   c-0.864-0.376-1.744-0.736-2.624-1.088L390.552,160H329.44l-7.888,39.456c-0.88,0.352-1.76,0.712-2.624,1.088l-33.488-22.32   L242.216,221.44z" data-original="#3F3A34" class="active-path" data-old_color="#3F3A34"/>
</g></g> </svg>
